<?xml version="1.0" encoding="UTF-8"?>
<svg id="Camada_1" data-name="Camada 1" xmlns="http://www.w3.org/2000/svg" viewBox="0 0 1080 1080">
  <defs>
    <style>
      .cls-1 {
        fill: #f2f2f2;
        stroke-width: 0px;
      }
    </style>
  </defs>
  <path class="cls-1" d="M1040.78,469.6c-6.65-13.25-18.72-22.99-33.97-26.51-8.93-1.95-12.87-1.95-22.23-.38-8.17,1.14-18.72,6.22-25.37,11.68-4.65,4.27-6.22,4.65-14.82,5.84-17.53,1.95-36.67,7.79-49.55,15.58-15.2,8.6-29.26,22.23-52.69,50.68-15.2,18.66-26.88,28.83-40.19,35.05-15.2,7.41-24.18,9.36-42.52,9.36-18.72-.38-31.97-3.14-43.71-10.11-8.98-5.09-35.48-26.51-46.03-37.43-8.98-8.98-12.87-10.93-21.47-10.93-11.3.43-17.15,3.52-21.42,12.12-5.46,11.31-1.57,21.42,11.31,30.78,4.27,3.08,13.25,10.11,19.53,15.58,21.8,18.72,37.81,28.83,55.77,34.67,27.32,8.6,64.75,7.79,94.01-1.57,27.75-9.36,45.27-22.99,67.94-51.82,21.04-27.26,35.48-39.33,55.77-47.17,10.55-3.89,13.69-4.27,13.69-2.33,0,2.33,7.79,16.77,10.87,20.28,10.55,11.68,26.94,18.28,42.95,17.15,13.25-1.19,22.61-5.08,31.59-13.25,16.77-14.82,20.72-36.62,10.55-57.28ZM994.75,505.03c-3.89,0-5.84-.76-8.98-3.89-3.89-3.89-4.71-5.41-4.71-10.11,0-4.27.81-6.22,3.89-9.36,3.14-3.52,4.71-3.89,9.79-3.89s6.6.38,10.55,4.27c3.08,3.14,4.27,5.09,4.27,8.6,0,9.36-5.08,14.39-14.82,14.39Z"/>
  <path class="cls-1" d="M243.63,590.39c35.92,22.99,92.12,28.07,133.44,11.68,14.82-6.22,27.7-15.2,49.93-35.05,6.65-5.84,14.06-11.68,16.82-12.87,5.46-3.14,10.93-10.49,12.06-16.77,2.38-13.25-12.87-27.64-26.5-25.31-7.41,1.57-10.93,3.89-19.15,12.87-10.93,12.06-38.24,33.48-49.17,38.57-30.02,14.01-74.48,8.17-101.42-13.63-3.89-3.14-15.63-15.96-26.13-28.83-24.23-29.64-37.11-40.95-58.15-50.31-12.12-5.84-25.75-9.3-39-10.12-9.79-.76-10.55-1.14-16.01-5.84-6.65-6.22-16.77-10.49-26.94-12.06-8.98-1.57-10.55-1.57-19.91.38-10.12,1.95-18.34,6.6-25.75,14.01-10.55,10.93-14.82,22.23-14.01,37.81,1.14,17.96,11.3,32.73,28.07,40.51,7.79,3.89,9.36,4.33,21.47,4.33s13.63-.43,21.42-3.89c14.06-6.65,22.66-15.2,27.7-28.45,2.76-7.03,3.52-7.03,15.63-3.14,19.91,7.41,35.48,20.28,56.96,47.93,15.63,20.28,23.8,28.45,38.62,38.19ZM98.13,495.73c-4.71,14.39-26.18,12.06-28.13-3.14-.38-5.08,0-6.22,3.52-10.11,2.38-2.76,5.46-5.08,7.03-5.08,11.31-2.33,21.1,8.17,17.58,18.34Z"/>
  <path class="cls-1" d="M853.09,915c-6.98-1.57-7.41-1.57-9.74-7.79-3.89-12.06-16.39-33.1-24.56-43.27-4.33-5.46-15.63-16.77-25.37-25.31-44.52-40.14-80-74.81-85.09-81.84-6.22-9.36-9.74-20.23-12.5-37.81-3.89-29.97-10.49-50.63-20.66-63.88-2.7-3.52-6.22-8.17-7.41-10.12-3.52-7.41-31.21-44.84-53.44-72.86-6.76-8.87-10.93-15.47-12.5-19.91-5.08-15.58-19.09-23.37-32.4-17.53-5.03,1.95-10.49,8.17-12.06,14.01-1.19,3.14-1.57,42.89-1.57,114.94,0,120.41,0,118.89,7.79,141.07,9.74,28.07,26.13,49.49,58.15,75.24l10.93,8.55v11.31c.38,13.63,3.52,22.23,12.5,32.73,18.72,21.85,55.77,22.99,76.49,1.95,10.11-10.49,15.2-25.69,12.87-39.76-2.76-17.9-12.87-30.78-29.7-38.95-7.79-3.52-9.74-3.89-20.28-3.89-8.17,0-13.63.38-17.96,2.33l-5.84,2.33-11.68-8.93c-25.37-19.91-39-37.05-45.65-58.09-2.76-8.55-2.76-11.68-3.14-51.82-1.14-99.75-1.14-112.24-.38-112.24s3.52,3.14,23.42,27.7c21.47,27.26,28.07,42.46,30.02,70.54,1.57,21.04,10.93,44.79,24.18,61.56,9.41,12.06,31.21,33.92,61.29,60.8,53.06,47.55,55.01,49.87,63.99,74.81l2.33,6.22-4.27,7.03c-18.72,29.21-5.84,66.26,26.13,76.38,20.28,6.22,43.71,0,55.82-15.2,24.56-29.64,8.55-72.86-29.7-80.27ZM675.99,888.87c4.27-3.08,9.74-3.52,14.82-.38,5.03,3.52,7.03,7.41,7.41,13.25,0,7.03-6.65,13.25-14.06,13.25-5.84,0-9.74-2.33-12.5-7.41-3.89-6.6-2.33-13.25,4.33-18.72ZM843.73,978.88c-4.65,0-12.06-5.41-13.63-10.49-2.33-5.84-.81-10.11,3.89-14.82,3.14-2.7,5.08-3.52,9.74-3.52,5.08,0,6.65.81,10.17,4.33,3.52,3.46,4.27,5.41,4.27,8.93,0,8.6-6.22,15.58-14.44,15.58Z"/>
  <path class="cls-1" d="M640.83,381.54c7.41-23.8-13.25-46.36-38.24-41.7-18.72,3.52-30.78,22.99-25.31,40.89,3.89,13.69,20.66,24.56,34.73,22.61,13.25-2.33,25.75-11.68,28.83-21.8Z"/>
  <path class="cls-1" d="M490.62,535.87c-5.84,3.08-9.36,8.93-12.87,19.47-1.57,4.38-5.73,10.66-12.5,18.72-10.12,12.06-17.9,22.56-41.33,55.71-29.64,40.89-34.35,50.63-37.49,81.03-1.95,19.91-4.27,28.83-10.11,39.38-5.46,10.11-8.22,13.25-63.99,65.07-44.08,40.89-52.69,49.87-61.66,64.69-6.22,9.74-15.2,28.83-15.2,32.35,0,.76-3.52,1.95-7.79,2.7-10.93,1.57-21.47,7.03-28.13,14.44-21.47,22.99-18.72,56.47,6.27,74.38,9.36,6.27,17.9,8.98,29.64,8.98,23.8,0,43.27-14.39,50.31-36.62,4.71-14.01,1.95-28.07-7.03-41.33l-4.65-6.6,3.14-7.79c8.17-21.85,17.15-31.97,69.02-78.7,29.26-26.5,49.55-46.79,57.77-57.28,13.25-18.34,21.47-40.57,22.99-63.56,1.19-14.77,3.52-24.5,8.98-35.81,4.33-8.98,21.47-31.59,37.11-49.87l8.55-9.79.43,68.59c.38,73.29-.43,83.41-6.27,100.18-6.22,17.53-18.72,32.73-43.33,52.96l-11.31,9.36-6.6-2.33c-7.84-2.7-24.61-3.08-32.78-.76-7.84,2.33-20.28,10.87-25.75,17.53-7.03,8.98-10.17,17.9-10.17,30.4,0,14.39,3.52,22.61,13.69,33.1,24.18,25.31,67.89,18.34,83.09-12.87,3.14-6.98,3.89-10.49,4.71-21.04l.76-12.44,8.98-6.65c31.21-22.99,53.06-53.33,63.61-88.44l3.52-11.31.38-114.19c.38-79.46,0-115.32-1.19-118.84-3.89-13.63-20.28-20.23-32.78-12.82ZM251.04,967.2c-.76,4.71-7.41,10.17-12.5,11.31-5.84,1.19-12.06-2.33-15.2-8.55-3.14-5.84-1.57-13.25,3.89-17.15,10.17-7.41,26.18,2.33,23.8,14.39ZM409.86,905.64c-3.52,9.74-14.44,12.5-22.61,5.46-4.33-3.52-4.71-4.27-4.71-10.11,0-5.46.81-6.65,4.71-10.55,3.08-3.08,5.46-4.27,8.55-4.27,9.41,0,17.2,10.49,14.06,19.47Z"/>
  <path class="cls-1" d="M662.68,181.24c8.6,17.9,10.17,25.31,10.17,49.49,0,19.47-.38,21.42-3.52,31.16-4.71,12.87-10.17,23.8-16.01,31.59-6.22,8.55-8.17,13.25-8.17,17.53,0,5.09,1.57,7.79,9.36,16.77,11.31,13.25,15.2,23.75,15.2,41.27,0,22.99-11.68,44.84-30.4,56.9-13.31,8.17-16.39,12.5-16.01,22.99,0,9.74,3.52,16.39,15.2,27.26,8.22,8.22,12.5,10.93,24.61,16.77,19.47,9.36,32.35,12.06,57.34,12.06,47.98.43,84.28-18.28,112.35-57.28,11.2-15.04,19.42-32.46,24.61-52.2,2.33-8.98,2.7-14.82,3.52-63.88.76-49.49,1.14-54.96,3.89-64.32,3.08-12.87,10.93-28.07,20.28-40.51,12.5-16.77,12.06-16.39,23.42-16.77,16.77-.76,30.83-7.41,39.76-19.09,13.31-17.9,13.69-41.33,0-58.85-18.72-24.56-55.77-27.26-78-5.46-10.93,10.55-16.39,29.26-13.25,44.03.76,4.33,2.33,9.36,3.46,11.3,2,3.52,1.57,3.89-6.98,16.01-14.87,20.23-23.04,36.24-29.7,59.23-3.08,11.68-3.52,12.44-4.27,65.45-.76,56.9-1.57,61.94-7.79,78.33-8.98,22.99-25.75,42.46-46.03,53.77-21.1,11.31-48.79,14.01-72.21,7.41-6.22-1.95-17.96-8.17-25.75-14.01l-3.89-2.76,4.71-3.52c11.68-9.36,26.13-28.02,31.59-41.27,5.09-11.68,7.41-26.13,6.6-41.33-1.14-16.77-3.08-25.31-10.49-40.14l-5.08-10.93,5.46-10.11c19.91-35.43,23.8-78.33,10.55-117.65-18.34-54.96-72.21-100.56-131.12-110.67-14.06-2.38-47.22-3.52-58.91-1.95-29.64,3.89-53.88,13.25-79.62,29.97-20.28,13.25-43.71,40.14-55.39,62.37-22.23,42.84-21.47,100.56,1.57,138.31,3.14,4.71,5.46,8.98,5.46,9.36s-2.33,5.08-4.71,10.55c-7.79,15.96-10.11,26.88-10.11,48.3,0,17.15.38,19.47,3.52,29.21,4.65,13.25,15.96,29.64,28.07,40.95,5.09,4.27,8.98,8.55,8.98,8.93,0,0-4.27,3.14-9.36,6.65-13.25,9.36-25.75,12.87-44.09,12.87s-28.89-2.38-42.95-8.98c-26.13-12.5-44.46-35.48-54.2-68.21-2-6.6-2.38-15.96-3.14-62.75-1.19-59.23-.81-56.47-8.6-80.27-5.46-15.58-10.93-26.45-21.47-41.27-13.25-19.09-13.25-18.72-10.93-22.99,3.52-6.65,5.08-19.47,3.52-27.32-3.52-17.15-13.63-29.97-29.64-37.38-7.79-3.52-9.74-3.89-20.66-3.89-16.77.38-25.37,3.52-35.54,13.25-10.11,10.12-15.58,21.04-15.96,34.29-.81,12.06,1.95,20.23,9.74,29.97,10.17,13.25,23.8,19.91,40.95,19.91h10.55l6.27,8.17c14.82,19.47,22.61,35.48,27.32,54.96,1.95,8.17,2.33,17.9,2.33,58.42.38,39.76.76,50.31,2.7,58.85,11.31,54.58,51.93,99.37,101.86,111.48,10.55,2.7,14.82,3.08,35.92,3.08,28.07-.38,36.24-1.95,57.72-12.06,10.55-5.08,15.63-8.6,23.42-15.58,12.12-11.3,16.77-19.09,16.77-28.07,0-9.74-3.52-15.2-16.39-24.18-15.2-10.49-22.61-21.42-27.32-39.7-5.84-21.85-.76-44.03,13.25-58.85,7.03-7.03,8.6-10.11,8.6-15.2,0-4.71-1.14-7.41-10.55-21.04-5.03-7.03-8.55-14.82-12.06-24.56l-5.09-14.01v-21.47c0-24.5,1.19-30.78,10.17-48.68,24.94-49.87,81.14-81.03,135.77-74.81,16.77,1.95,29.26,5.46,42.89,11.68,28.89,12.87,52.31,35.43,65.94,63.13ZM894.84,156.3c1.19-3.89,2.76-5.84,6.27-7.41,6.98-3.52,15.2-1.19,19.47,5.84,3.52,5.84,3.14,10.55-1.95,15.2-3.89,3.89-5.09,4.27-10.93,4.27s-7.41-.38-10.11-3.08c-4.33-4.71-5.08-8.98-2.76-14.82ZM180.02,173.07c-4.65,1.95-12.44,1.51-15.58-.81-3.52-2.33-6.65-8.17-6.65-12.06,0-3.52,5.46-10.55,9.36-12.06,8.6-3.52,18.34,2.33,19.91,11.3.81,5.41-2.33,12.06-7.03,13.63Z"/>
  <path class="cls-1" d="M504.68,371.81c-.38-8.98-2.33-14.82-8.22-21.04-10.11-11.3-26.5-14.06-40.19-7.79-22.61,11.31-22.99,44.03-.38,56.09,13.31,7.03,26.56,5.08,37.49-4.65,8.17-7.03,11.31-13.25,11.31-22.61Z"/>
</svg>