<svg xmlns="http://www.w3.org/2000/svg" xmlns:xlink="http://www.w3.org/1999/xlink" width="102" zoomAndPan="magnify" viewBox="0 0 76.5 76.499999" height="102" preserveAspectRatio="xMidYMid meet" version="1.0"><defs><clipPath id="42f7d4f30f"><path d="M 0 6 L 69 6 L 69 75.257812 L 0 75.257812 Z M 0 6 " clip-rule="nonzero"/></clipPath><clipPath id="1804e968c0"><path d="M 32 0 L 75.257812 0 L 75.257812 43 L 32 43 Z M 32 0 " clip-rule="nonzero"/></clipPath><clipPath id="dffd7ce382"><path d="M 0 6 L 69 6 L 69 75.257812 L 0 75.257812 Z M 0 6 " clip-rule="nonzero"/></clipPath><clipPath id="57e2644fa4"><path d="M 32 0 L 75.257812 0 L 75.257812 43 L 32 43 Z M 32 0 " clip-rule="nonzero"/></clipPath></defs><g clip-path="url(#42f7d4f30f)"><path fill="#1c97cd" d="M 34.363281 75.269531 C 15.414062 75.269531 0 59.855469 0 40.90625 C 0 21.960938 15.414062 6.546875 34.363281 6.546875 C 41.117188 6.546875 47.664062 8.519531 53.304688 12.25 C 54.054688 12.746094 54.261719 13.765625 53.765625 14.515625 C 53.261719 15.273438 52.246094 15.472656 51.496094 14.980469 C 46.398438 11.605469 40.472656 9.816406 34.363281 9.816406 C 17.21875 9.816406 3.273438 23.765625 3.273438 40.90625 C 3.273438 58.050781 17.21875 71.996094 34.363281 71.996094 C 51.503906 71.996094 65.453125 58.050781 65.453125 40.90625 C 65.453125 34.796875 63.667969 28.871094 60.292969 23.773438 C 59.792969 23.019531 60 22 60.753906 21.503906 C 61.5 21.011719 62.515625 21.210938 63.019531 21.964844 C 66.753906 27.601562 68.722656 34.152344 68.722656 40.90625 C 68.722656 59.855469 53.3125 75.269531 34.363281 75.269531 Z M 34.363281 75.269531 " fill-opacity="1" fill-rule="nonzero"/></g><path fill="#1c97cd" d="M 34.363281 49.089844 C 29.847656 49.089844 26.179688 45.417969 26.179688 40.90625 C 26.179688 36.398438 29.847656 32.726562 34.363281 32.726562 C 38.875 32.726562 42.542969 36.398438 42.542969 40.90625 C 42.542969 45.417969 38.875 49.089844 34.363281 49.089844 Z M 34.363281 36 C 31.65625 36 29.453125 38.199219 29.453125 40.90625 C 29.453125 43.613281 31.65625 45.816406 34.363281 45.816406 C 37.070312 45.816406 39.269531 43.613281 39.269531 40.90625 C 39.269531 38.199219 37.070312 36 34.363281 36 Z M 34.363281 36 " fill-opacity="1" fill-rule="nonzero"/><g clip-path="url(#1804e968c0)"><path fill="#1c97cd" d="M 34.363281 42.542969 C 33.945312 42.542969 33.523438 42.382812 33.203125 42.066406 C 32.566406 41.429688 32.566406 40.390625 33.203125 39.753906 L 58.90625 14.050781 L 58.90625 8.179688 C 58.90625 7.746094 59.082031 7.332031 59.382812 7.023438 L 65.929688 0.476562 C 66.402344 0.0117188 67.105469 -0.132812 67.714844 0.125 C 68.324219 0.378906 68.722656 0.976562 68.722656 1.636719 L 68.722656 6.546875 L 73.632812 6.546875 C 74.292969 6.546875 74.894531 6.945312 75.144531 7.554688 C 75.398438 8.167969 75.257812 8.871094 74.792969 9.339844 L 68.246094 15.886719 C 67.9375 16.191406 67.523438 16.363281 67.089844 16.363281 L 61.21875 16.363281 L 35.515625 42.066406 C 35.199219 42.382812 34.78125 42.542969 34.363281 42.542969 Z M 62.179688 13.089844 L 66.410156 13.089844 L 69.683594 9.816406 L 67.089844 9.816406 C 66.183594 9.816406 65.453125 9.085938 65.453125 8.179688 L 65.453125 5.585938 L 62.179688 8.859375 Z M 62.179688 13.089844 " fill-opacity="1" fill-rule="nonzero"/></g><path fill="#1c97cd" d="M 34.363281 62.179688 C 22.632812 62.179688 13.089844 52.636719 13.089844 40.90625 C 13.089844 29.179688 22.632812 19.636719 34.363281 19.636719 C 37.535156 19.636719 40.617188 20.339844 43.515625 21.726562 C 44.332031 22.121094 44.675781 23.09375 44.285156 23.910156 C 43.894531 24.722656 42.917969 25.066406 42.101562 24.679688 C 39.648438 23.503906 37.042969 22.90625 34.363281 22.90625 C 24.441406 22.90625 16.363281 30.980469 16.363281 40.90625 C 16.363281 50.832031 24.441406 58.90625 34.363281 58.90625 C 44.285156 58.90625 52.363281 50.832031 52.363281 40.90625 C 52.363281 38.226562 51.761719 35.621094 50.585938 33.164062 C 50.199219 32.351562 50.542969 31.375 51.355469 30.980469 C 52.160156 30.589844 53.148438 30.929688 53.539062 31.75 C 54.929688 34.652344 55.632812 37.734375 55.632812 40.90625 C 55.632812 52.636719 46.089844 62.179688 34.363281 62.179688 Z M 34.363281 62.179688 " fill-opacity="1" fill-rule="nonzero"/><g clip-path="url(#dffd7ce382)"><path fill="#1c97cd" d="M 34.363281 75.269531 C 15.414062 75.269531 0 59.855469 0 40.90625 C 0 21.960938 15.414062 6.546875 34.363281 6.546875 C 41.117188 6.546875 47.664062 8.519531 53.304688 12.25 C 54.054688 12.746094 54.261719 13.765625 53.765625 14.515625 C 53.261719 15.273438 52.246094 15.472656 51.496094 14.980469 C 46.398438 11.605469 40.472656 9.816406 34.363281 9.816406 C 17.21875 9.816406 3.273438 23.765625 3.273438 40.90625 C 3.273438 58.050781 17.21875 71.996094 34.363281 71.996094 C 51.503906 71.996094 65.453125 58.050781 65.453125 40.90625 C 65.453125 34.796875 63.667969 28.871094 60.292969 23.773438 C 59.792969 23.019531 60 22 60.753906 21.503906 C 61.5 21.011719 62.515625 21.210938 63.019531 21.964844 C 66.753906 27.601562 68.722656 34.152344 68.722656 40.90625 C 68.722656 59.855469 53.3125 75.269531 34.363281 75.269531 Z M 34.363281 75.269531 " fill-opacity="1" fill-rule="nonzero"/></g><path fill="#1c97cd" d="M 34.363281 49.089844 C 29.847656 49.089844 26.179688 45.417969 26.179688 40.90625 C 26.179688 36.398438 29.847656 32.726562 34.363281 32.726562 C 38.875 32.726562 42.542969 36.398438 42.542969 40.90625 C 42.542969 45.417969 38.875 49.089844 34.363281 49.089844 Z M 34.363281 36 C 31.65625 36 29.453125 38.199219 29.453125 40.90625 C 29.453125 43.613281 31.65625 45.816406 34.363281 45.816406 C 37.070312 45.816406 39.269531 43.613281 39.269531 40.90625 C 39.269531 38.199219 37.070312 36 34.363281 36 Z M 34.363281 36 " fill-opacity="1" fill-rule="nonzero"/><g clip-path="url(#57e2644fa4)"><path fill="#1c97cd" d="M 34.363281 42.542969 C 33.945312 42.542969 33.523438 42.382812 33.203125 42.066406 C 32.566406 41.429688 32.566406 40.390625 33.203125 39.753906 L 58.90625 14.050781 L 58.90625 8.179688 C 58.90625 7.746094 59.082031 7.332031 59.382812 7.023438 L 65.929688 0.476562 C 66.402344 0.0117188 67.105469 -0.132812 67.714844 0.125 C 68.324219 0.378906 68.722656 0.976562 68.722656 1.636719 L 68.722656 6.546875 L 73.632812 6.546875 C 74.292969 6.546875 74.894531 6.945312 75.144531 7.554688 C 75.398438 8.167969 75.257812 8.871094 74.792969 9.339844 L 68.246094 15.886719 C 67.9375 16.191406 67.523438 16.363281 67.089844 16.363281 L 61.21875 16.363281 L 35.515625 42.066406 C 35.199219 42.382812 34.78125 42.542969 34.363281 42.542969 Z M 62.179688 13.089844 L 66.410156 13.089844 L 69.683594 9.816406 L 67.089844 9.816406 C 66.183594 9.816406 65.453125 9.085938 65.453125 8.179688 L 65.453125 5.585938 L 62.179688 8.859375 Z M 62.179688 13.089844 " fill-opacity="1" fill-rule="nonzero"/></g><path fill="#1c97cd" d="M 34.363281 62.179688 C 22.632812 62.179688 13.089844 52.636719 13.089844 40.90625 C 13.089844 29.179688 22.632812 19.636719 34.363281 19.636719 C 37.535156 19.636719 40.617188 20.339844 43.515625 21.726562 C 44.332031 22.121094 44.675781 23.09375 44.285156 23.910156 C 43.894531 24.722656 42.917969 25.066406 42.101562 24.679688 C 39.648438 23.503906 37.042969 22.90625 34.363281 22.90625 C 24.441406 22.90625 16.363281 30.980469 16.363281 40.90625 C 16.363281 50.832031 24.441406 58.90625 34.363281 58.90625 C 44.285156 58.90625 52.363281 50.832031 52.363281 40.90625 C 52.363281 38.226562 51.761719 35.621094 50.585938 33.164062 C 50.199219 32.351562 50.542969 31.375 51.355469 30.980469 C 52.160156 30.589844 53.148438 30.929688 53.539062 31.75 C 54.929688 34.652344 55.632812 37.734375 55.632812 40.90625 C 55.632812 52.636719 46.089844 62.179688 34.363281 62.179688 Z M 34.363281 62.179688 " fill-opacity="1" fill-rule="nonzero"/></svg>