<svg xmlns="http://www.w3.org/2000/svg" xmlns:xlink="http://www.w3.org/1999/xlink" width="105" zoomAndPan="magnify" viewBox="0 0 78.75 80.249996" height="107" preserveAspectRatio="xMidYMid meet" version="1.0"><defs><clipPath id="68c8739954"><path d="M 5 21 L 72 21 L 72 79.507812 L 5 79.507812 Z M 5 21 " clip-rule="nonzero"/></clipPath><clipPath id="1103ae95e9"><path d="M 24 21 L 53 21 L 53 79.507812 L 24 79.507812 Z M 24 21 " clip-rule="nonzero"/></clipPath><clipPath id="d7770a74f9"><path d="M 67 6 L 77.519531 6 L 77.519531 18 L 67 18 Z M 67 6 " clip-rule="nonzero"/></clipPath><clipPath id="e1328ae514"><path d="M 0.242188 6 L 11 6 L 11 18 L 0.242188 18 Z M 0.242188 6 " clip-rule="nonzero"/></clipPath><clipPath id="bd9fba51cc"><path d="M 5 21 L 72 21 L 72 79.507812 L 5 79.507812 Z M 5 21 " clip-rule="nonzero"/></clipPath><clipPath id="aad99e33b1"><path d="M 24 21 L 53 21 L 53 79.507812 L 24 79.507812 Z M 24 21 " clip-rule="nonzero"/></clipPath><clipPath id="9434a6eb2c"><path d="M 67 6 L 77.519531 6 L 77.519531 18 L 67 18 Z M 67 6 " clip-rule="nonzero"/></clipPath><clipPath id="525ae17a53"><path d="M 0.242188 6 L 11 6 L 11 18 L 0.242188 18 Z M 0.242188 6 " clip-rule="nonzero"/></clipPath></defs><g clip-path="url(#68c8739954)"><path fill="#1c97cd" d="M 38.421875 79.460938 C 38.109375 79.460938 37.800781 79.304688 37.488281 78.996094 L 5.519531 36.78125 C 5.363281 36.472656 5.363281 36.003906 5.519531 35.539062 L 13.746094 21.882812 C 13.898438 21.574219 14.367188 21.417969 14.675781 21.417969 L 62.320312 21.417969 C 62.789062 21.417969 63.097656 21.574219 63.253906 21.882812 L 71.324219 35.539062 C 71.476562 36.003906 71.476562 36.472656 71.324219 36.78125 L 39.351562 78.996094 C 39.042969 79.304688 38.730469 79.460938 38.421875 79.460938 Z M 7.691406 36.160156 L 38.421875 76.511719 L 69.148438 36.003906 L 61.699219 23.589844 L 15.296875 23.589844 Z M 7.691406 36.160156 " fill-opacity="1" fill-rule="evenodd"/></g><g clip-path="url(#1103ae95e9)"><path fill="#1c97cd" d="M 38.421875 79.460938 C 37.957031 79.460938 37.488281 79.148438 37.335938 78.683594 L 24.144531 36.472656 C 24.144531 36.316406 24.144531 36.160156 24.144531 35.851562 L 27.558594 22.191406 C 27.710938 21.726562 28.332031 21.261719 28.953125 21.417969 C 29.574219 21.574219 29.886719 22.191406 29.730469 22.8125 L 26.316406 36.160156 L 38.421875 74.804688 L 50.683594 36.160156 L 47.265625 22.8125 C 47.113281 22.191406 47.578125 21.574219 48.042969 21.417969 C 48.664062 21.261719 49.285156 21.574219 49.441406 22.191406 L 52.855469 35.851562 C 52.855469 36.160156 52.855469 36.316406 52.855469 36.472656 L 39.507812 78.683594 C 39.351562 79.148438 38.886719 79.460938 38.421875 79.460938 Z M 38.421875 79.460938 " fill-opacity="1" fill-rule="evenodd"/></g><path fill="#1c97cd" d="M 70.390625 37.246094 L 6.449219 37.246094 C 5.832031 37.246094 5.363281 36.78125 5.363281 36.160156 C 5.363281 35.539062 5.832031 35.074219 6.449219 35.074219 L 70.390625 35.074219 C 71.011719 35.074219 71.476562 35.539062 71.476562 36.160156 C 71.476562 36.78125 71.011719 37.246094 70.390625 37.246094 Z M 70.390625 37.246094 " fill-opacity="1" fill-rule="evenodd"/><path fill="#1c97cd" d="M 39.199219 12.105469 C 38.578125 12.105469 38.109375 11.640625 38.109375 11.019531 L 38.109375 1.085938 C 38.109375 0.464844 38.578125 0 39.199219 0 C 39.816406 0 40.285156 0.464844 40.285156 1.085938 L 40.285156 11.019531 C 40.285156 11.640625 39.816406 12.105469 39.199219 12.105469 Z M 39.199219 12.105469 " fill-opacity="1" fill-rule="evenodd"/><path fill="#1c97cd" d="M 54.71875 13.65625 C 54.5625 13.65625 54.40625 13.65625 54.25 13.503906 C 53.785156 13.347656 53.476562 12.726562 53.785156 12.105469 L 57.664062 2.484375 C 57.820312 2.015625 58.441406 1.707031 59.0625 1.863281 C 59.527344 2.171875 59.839844 2.792969 59.683594 3.414062 L 55.804688 13.035156 C 55.492188 13.347656 55.183594 13.65625 54.71875 13.65625 Z M 54.71875 13.65625 " fill-opacity="1" fill-rule="evenodd"/><g clip-path="url(#d7770a74f9)"><path fill="#1c97cd" d="M 68.996094 17.691406 C 68.683594 17.691406 68.53125 17.539062 68.21875 17.382812 C 67.753906 17.070312 67.753906 16.296875 68.21875 15.828125 L 75.824219 7.292969 C 76.132812 6.828125 76.910156 6.828125 77.375 7.292969 C 77.839844 7.605469 77.839844 8.378906 77.375 8.847656 L 69.769531 17.382812 C 69.617188 17.539062 69.304688 17.691406 68.996094 17.691406 Z M 68.996094 17.691406 " fill-opacity="1" fill-rule="evenodd"/></g><path fill="#1c97cd" d="M 23.679688 13.191406 C 23.210938 13.191406 22.902344 12.882812 22.746094 12.570312 L 18.867188 3.105469 C 18.554688 2.484375 18.867188 1.863281 19.332031 1.707031 C 19.953125 1.398438 20.574219 1.707031 20.730469 2.171875 L 24.609375 11.640625 C 24.917969 12.261719 24.609375 12.882812 24.144531 13.035156 C 23.988281 13.191406 23.832031 13.191406 23.679688 13.191406 Z M 23.679688 13.191406 " fill-opacity="1" fill-rule="evenodd"/><g clip-path="url(#e1328ae514)"><path fill="#1c97cd" d="M 9.089844 17.070312 C 8.777344 17.070312 8.46875 16.917969 8.3125 16.761719 L 0.707031 8.226562 C 0.242188 7.761719 0.398438 6.984375 0.707031 6.671875 C 1.175781 6.207031 1.949219 6.363281 2.261719 6.671875 L 9.867188 15.210938 C 10.332031 15.675781 10.332031 16.449219 9.867188 16.761719 C 9.554688 16.917969 9.398438 17.070312 9.089844 17.070312 Z M 9.089844 17.070312 " fill-opacity="1" fill-rule="evenodd"/></g><g clip-path="url(#bd9fba51cc)"><path fill="#1c97cd" d="M 38.421875 79.460938 C 38.109375 79.460938 37.800781 79.304688 37.488281 78.996094 L 5.519531 36.78125 C 5.363281 36.472656 5.363281 36.003906 5.519531 35.539062 L 13.746094 21.882812 C 13.898438 21.574219 14.367188 21.417969 14.675781 21.417969 L 62.320312 21.417969 C 62.789062 21.417969 63.097656 21.574219 63.253906 21.882812 L 71.324219 35.539062 C 71.476562 36.003906 71.476562 36.472656 71.324219 36.78125 L 39.351562 78.996094 C 39.042969 79.304688 38.730469 79.460938 38.421875 79.460938 Z M 7.691406 36.160156 L 38.421875 76.511719 L 69.148438 36.003906 L 61.699219 23.589844 L 15.296875 23.589844 Z M 7.691406 36.160156 " fill-opacity="1" fill-rule="evenodd"/></g><g clip-path="url(#aad99e33b1)"><path fill="#1c97cd" d="M 38.421875 79.460938 C 37.957031 79.460938 37.488281 79.148438 37.335938 78.683594 L 24.144531 36.472656 C 24.144531 36.316406 24.144531 36.160156 24.144531 35.851562 L 27.558594 22.191406 C 27.710938 21.726562 28.332031 21.261719 28.953125 21.417969 C 29.574219 21.574219 29.886719 22.191406 29.730469 22.8125 L 26.316406 36.160156 L 38.421875 74.804688 L 50.683594 36.160156 L 47.265625 22.8125 C 47.113281 22.191406 47.578125 21.574219 48.042969 21.417969 C 48.664062 21.261719 49.285156 21.574219 49.441406 22.191406 L 52.855469 35.851562 C 52.855469 36.160156 52.855469 36.316406 52.855469 36.472656 L 39.507812 78.683594 C 39.351562 79.148438 38.886719 79.460938 38.421875 79.460938 Z M 38.421875 79.460938 " fill-opacity="1" fill-rule="evenodd"/></g><path fill="#1c97cd" d="M 70.390625 37.246094 L 6.449219 37.246094 C 5.832031 37.246094 5.363281 36.78125 5.363281 36.160156 C 5.363281 35.539062 5.832031 35.074219 6.449219 35.074219 L 70.390625 35.074219 C 71.011719 35.074219 71.476562 35.539062 71.476562 36.160156 C 71.476562 36.78125 71.011719 37.246094 70.390625 37.246094 Z M 70.390625 37.246094 " fill-opacity="1" fill-rule="evenodd"/><path fill="#1c97cd" d="M 39.199219 12.105469 C 38.578125 12.105469 38.109375 11.640625 38.109375 11.019531 L 38.109375 1.085938 C 38.109375 0.464844 38.578125 0 39.199219 0 C 39.816406 0 40.285156 0.464844 40.285156 1.085938 L 40.285156 11.019531 C 40.285156 11.640625 39.816406 12.105469 39.199219 12.105469 Z M 39.199219 12.105469 " fill-opacity="1" fill-rule="evenodd"/><path fill="#1c97cd" d="M 54.71875 13.65625 C 54.5625 13.65625 54.40625 13.65625 54.25 13.503906 C 53.785156 13.347656 53.476562 12.726562 53.785156 12.105469 L 57.664062 2.484375 C 57.820312 2.015625 58.441406 1.707031 59.0625 1.863281 C 59.527344 2.171875 59.839844 2.792969 59.683594 3.414062 L 55.804688 13.035156 C 55.492188 13.347656 55.183594 13.65625 54.71875 13.65625 Z M 54.71875 13.65625 " fill-opacity="1" fill-rule="evenodd"/><g clip-path="url(#9434a6eb2c)"><path fill="#1c97cd" d="M 68.996094 17.691406 C 68.683594 17.691406 68.53125 17.539062 68.21875 17.382812 C 67.753906 17.070312 67.753906 16.296875 68.21875 15.828125 L 75.824219 7.292969 C 76.132812 6.828125 76.910156 6.828125 77.375 7.292969 C 77.839844 7.605469 77.839844 8.378906 77.375 8.847656 L 69.769531 17.382812 C 69.617188 17.539062 69.304688 17.691406 68.996094 17.691406 Z M 68.996094 17.691406 " fill-opacity="1" fill-rule="evenodd"/></g><path fill="#1c97cd" d="M 23.679688 13.191406 C 23.210938 13.191406 22.902344 12.882812 22.746094 12.570312 L 18.867188 3.105469 C 18.554688 2.484375 18.867188 1.863281 19.332031 1.707031 C 19.953125 1.398438 20.574219 1.707031 20.730469 2.171875 L 24.609375 11.640625 C 24.917969 12.261719 24.609375 12.882812 24.144531 13.035156 C 23.988281 13.191406 23.832031 13.191406 23.679688 13.191406 Z M 23.679688 13.191406 " fill-opacity="1" fill-rule="evenodd"/><g clip-path="url(#525ae17a53)"><path fill="#1c97cd" d="M 9.089844 17.070312 C 8.777344 17.070312 8.46875 16.917969 8.3125 16.761719 L 0.707031 8.226562 C 0.242188 7.761719 0.398438 6.984375 0.707031 6.671875 C 1.175781 6.207031 1.949219 6.363281 2.261719 6.671875 L 9.867188 15.210938 C 10.332031 15.675781 10.332031 16.449219 9.867188 16.761719 C 9.554688 16.917969 9.398438 17.070312 9.089844 17.070312 Z M 9.089844 17.070312 " fill-opacity="1" fill-rule="evenodd"/></g></svg>