<svg xmlns="http://www.w3.org/2000/svg" xmlns:xlink="http://www.w3.org/1999/xlink" width="119" zoomAndPan="magnify" viewBox="0 0 89.25 86.249997" height="115" preserveAspectRatio="xMidYMid meet" version="1.0"><defs><clipPath id="b771e7016e"><path d="M 0.0117188 2 L 88.492188 2 L 88.492188 84.761719 L 0.0117188 84.761719 Z M 0.0117188 2 " clip-rule="nonzero"/></clipPath><clipPath id="84887adaf8"><path d="M 0.0117188 2 L 88.492188 2 L 88.492188 84.761719 L 0.0117188 84.761719 Z M 0.0117188 2 " clip-rule="nonzero"/></clipPath><clipPath id="9385df9483"><path d="M 0.0117188 2 L 88.492188 2 L 88.492188 84.761719 L 0.0117188 84.761719 Z M 0.0117188 2 " clip-rule="nonzero"/></clipPath><clipPath id="1b8732f1ee"><path d="M 0.0117188 2 L 88.492188 2 L 88.492188 84.761719 L 0.0117188 84.761719 Z M 0.0117188 2 " clip-rule="nonzero"/></clipPath></defs><g clip-path="url(#b771e7016e)"><path fill="#1c97cd" d="M 55.375 53.546875 C 56.859375 53.503906 58.078125 53.929688 59.21875 55.074219 L 85.398438 81.394531 C 85.746094 81.746094 85.800781 82.15625 85.734375 82.441406 C 85.671875 82.730469 85.621094 82.714844 85.597656 82.714844 L 2.996094 82.714844 C 2.847656 82.714844 2.835938 82.695312 2.773438 82.644531 C 2.714844 82.589844 2.636719 82.46875 2.589844 82.285156 C 2.5 81.929688 2.660156 81.46875 2.710938 81.417969 L 16.816406 67.980469 C 18.539062 66.339844 19.625 65.367188 20.691406 64.832031 C 21.761719 64.292969 22.925781 64.089844 25.074219 64.089844 L 30.726562 64.089844 C 34.136719 64.089844 36.175781 63.421875 38.949219 61.820312 L 47.253906 57.023438 C 48.136719 56.984375 49.023438 56.683594 49.714844 56.046875 C 49.957031 55.824219 50.152344 55.546875 50.332031 55.253906 C 52.171875 54.1875 53.90625 53.59375 55.375 53.546875 Z M 34.835938 38.921875 C 35.324219 38.914062 36.023438 39.074219 36.792969 39.480469 C 40.273438 41.300781 41.644531 42.449219 42.273438 43.683594 C 43.007812 45.097656 43.257812 47.929688 43.257812 53.054688 C 43.199219 54.273438 43.667969 55.359375 44.410156 56.046875 L 44.414062 56.046875 L 37.820312 59.855469 C 35.414062 61.242188 34.09375 61.730469 31.472656 61.804688 C 31.671875 61.394531 31.820312 60.945312 31.871094 60.449219 C 32.820312 53.304688 33.238281 47.832031 33.585938 40.824219 C 33.65625 39.445312 34 39.136719 34.433594 38.988281 C 34.539062 38.949219 34.675781 38.929688 34.835938 38.921875 Z M 45.472656 11.222656 C 45.449219 12.042969 45.28125 13.261719 45.125 14.074219 C 44.433594 14.371094 43.71875 14.585938 43.113281 14.785156 C 43.660156 13.59375 44.035156 12.183594 44.308594 10.65625 C 44.4375 9.910156 45.5 10.140625 45.472656 11.222656 Z M 47.484375 9.570312 L 50.160156 9.652344 C 49.40625 10.960938 48.558594 11.921875 47.617188 12.65625 C 47.660156 12.207031 47.710938 11.738281 47.734375 11.363281 C 47.78125 10.699219 47.6875 10.097656 47.484375 9.570312 Z M 54.289062 10.417969 C 52.300781 16.027344 48.90625 18.332031 44.6875 19.601562 C 42.738281 20.191406 40.886719 20.324219 38.644531 20.5625 C 38.058594 20.625 37.617188 21.132812 37.632812 21.722656 L 37.988281 33.570312 C 38.007812 33.988281 38.25 34.363281 38.628906 34.550781 C 42.878906 36.601562 45.65625 38.5625 47.023438 41.234375 C 48.625 44.335938 48.503906 47.875 48.597656 53.117188 C 48.609375 53.65625 48.40625 54.058594 48.179688 54.363281 C 47.96875 54.660156 47.492188 54.769531 47.058594 54.769531 C 46.628906 54.769531 46.21875 54.617188 45.953125 54.363281 C 45.535156 53.871094 45.53125 53.566406 45.519531 53.117188 C 45.4375 47.894531 45.429688 44.847656 44.292969 42.644531 C 43.316406 40.75 41.453125 39.363281 37.851562 37.472656 C 36.503906 36.769531 35.054688 36.371094 33.683594 36.851562 C 32.320312 37.335938 31.417969 38.800781 31.328125 40.710938 C 30.980469 47.695312 30.566406 53.074219 29.628906 60.171875 C 29.621094 60.1875 29.621094 60.199219 29.617188 60.210938 C 29.554688 60.84375 29.339844 61.128906 29.039062 61.335938 C 28.742188 61.542969 28.308594 61.636719 27.882812 61.585938 C 27.464844 61.53125 27.074219 61.320312 26.839844 61.046875 C 26.492188 60.523438 26.511719 60.25 26.574219 59.773438 C 28.765625 43.421875 29.027344 30.335938 27.628906 19.8125 C 27.503906 18.871094 28.203125 18.0625 29.152344 18.0625 C 34.191406 18.0625 40.105469 18.0625 43.800781 16.945312 C 47.28125 15.894531 50.6875 14.042969 52.875 9.335938 C 53.457031 8.085938 54.699219 9.25 54.289062 10.417969 Z M 66.992188 5.375 L 66.992188 7.875 L 55.90625 7.574219 C 55.632812 7.238281 55.296875 6.960938 54.917969 6.773438 C 53.84375 6.25 52.445312 6.5 51.5 7.433594 L 43.066406 7.160156 C 42.148438 7.132812 42.296875 5.96875 43.011719 5.949219 Z M 68.105469 2.316406 C 67.617188 2.332031 67.191406 2.648438 67.042969 3.109375 L 43.085938 3.675781 C 41.285156 3.722656 39.890625 5.164062 39.917969 6.597656 C 39.9375 7.859375 40.9375 9.046875 42.382812 9.347656 C 42.222656 9.652344 42.109375 9.988281 42.058594 10.359375 C 41.792969 12.398438 40.960938 14.21875 40.183594 15.347656 C 37.023438 15.738281 32.835938 15.800781 29.148438 15.800781 C 26.875 15.800781 25.234375 18.179688 25.382812 20.109375 C 26.472656 34.582031 26.136719 47.972656 24.324219 59.445312 C 24.183594 60.3125 24.332031 61.144531 24.671875 61.832031 C 22.589844 61.859375 21.058594 62.109375 19.675781 62.804688 C 18.207031 63.542969 16.996094 64.683594 15.257812 66.335938 L 1.148438 79.777344 C 0.269531 80.617188 0.132812 81.78125 0.394531 82.828125 C 0.523438 83.355469 0.773438 83.878906 1.21875 84.292969 C 1.652344 84.714844 2.308594 84.984375 2.996094 84.984375 L 85.601562 84.984375 C 86.832031 84.984375 87.707031 83.972656 87.945312 82.953125 C 88.179688 81.921875 87.914062 80.707031 87.015625 79.796875 L 60.832031 53.472656 C 59.28125 51.917969 57.320312 51.21875 55.3125 51.285156 C 53.851562 51.332031 52.359375 51.753906 50.867188 52.429688 C 50.871094 47.558594 50.871094 43.746094 49.042969 40.195312 C 47.40625 37.015625 44.285156 34.902344 40.242188 32.878906 L 39.929688 22.648438 C 41.730469 22.46875 43.480469 22.335938 45.355469 21.769531 C 50.007812 20.359375 54.207031 17.398438 56.429688 11.183594 C 56.589844 10.734375 56.65625 10.296875 56.664062 9.875 L 67.019531 10.148438 C 67.363281 11.488281 69.34375 11.171875 69.253906 9.796875 L 69.253906 3.464844 C 69.261719 2.832031 68.742188 2.308594 68.105469 2.316406 Z M 68.105469 2.316406 " fill-opacity="1" fill-rule="nonzero"/></g><path fill="#1c97cd" d="M 33.96875 3.464844 C 36.257812 4.335938 37.359375 6.8125 36.484375 9.050781 C 35.605469 11.289062 33.058594 12.402344 30.769531 11.535156 C 28.488281 10.664062 27.386719 8.183594 28.261719 5.953125 C 29.140625 3.710938 31.683594 2.597656 33.96875 3.464844 Z M 34.769531 1.347656 C 31.351562 0.046875 27.476562 1.734375 26.140625 5.125 L 26.15625 5.125 C 24.824219 8.507812 26.539062 12.355469 29.960938 13.652344 C 33.386719 14.949219 37.261719 13.269531 38.597656 9.875 C 39.921875 6.488281 38.199219 2.648438 34.769531 1.347656 Z M 34.769531 1.347656 " fill-opacity="1" fill-rule="evenodd"/><g clip-path="url(#84887adaf8)"><path fill="#1c97cd" d="M 55.375 53.546875 C 56.859375 53.503906 58.078125 53.929688 59.21875 55.074219 L 85.398438 81.394531 C 85.746094 81.746094 85.800781 82.15625 85.734375 82.441406 C 85.671875 82.730469 85.621094 82.714844 85.597656 82.714844 L 2.996094 82.714844 C 2.847656 82.714844 2.835938 82.695312 2.773438 82.644531 C 2.714844 82.589844 2.636719 82.46875 2.589844 82.285156 C 2.5 81.929688 2.660156 81.46875 2.710938 81.417969 L 16.816406 67.980469 C 18.539062 66.339844 19.625 65.367188 20.691406 64.832031 C 21.761719 64.292969 22.925781 64.089844 25.074219 64.089844 L 30.726562 64.089844 C 34.136719 64.089844 36.175781 63.421875 38.949219 61.820312 L 47.253906 57.023438 C 48.136719 56.984375 49.023438 56.683594 49.714844 56.046875 C 49.957031 55.824219 50.152344 55.546875 50.332031 55.253906 C 52.171875 54.1875 53.90625 53.59375 55.375 53.546875 Z M 34.835938 38.921875 C 35.324219 38.914062 36.023438 39.074219 36.792969 39.480469 C 40.273438 41.300781 41.644531 42.449219 42.273438 43.683594 C 43.007812 45.097656 43.257812 47.929688 43.257812 53.054688 C 43.199219 54.273438 43.667969 55.359375 44.410156 56.046875 L 44.414062 56.046875 L 37.820312 59.855469 C 35.414062 61.242188 34.09375 61.730469 31.472656 61.804688 C 31.671875 61.394531 31.820312 60.945312 31.871094 60.449219 C 32.820312 53.304688 33.238281 47.832031 33.585938 40.824219 C 33.65625 39.445312 34 39.136719 34.433594 38.988281 C 34.539062 38.949219 34.675781 38.929688 34.835938 38.921875 Z M 45.472656 11.222656 C 45.449219 12.042969 45.28125 13.261719 45.125 14.074219 C 44.433594 14.371094 43.71875 14.585938 43.113281 14.785156 C 43.660156 13.59375 44.035156 12.183594 44.308594 10.65625 C 44.4375 9.910156 45.5 10.140625 45.472656 11.222656 Z M 47.484375 9.570312 L 50.160156 9.652344 C 49.40625 10.960938 48.558594 11.921875 47.617188 12.65625 C 47.660156 12.207031 47.710938 11.738281 47.734375 11.363281 C 47.78125 10.699219 47.6875 10.097656 47.484375 9.570312 Z M 54.289062 10.417969 C 52.300781 16.027344 48.90625 18.332031 44.6875 19.601562 C 42.738281 20.191406 40.886719 20.324219 38.644531 20.5625 C 38.058594 20.625 37.617188 21.132812 37.632812 21.722656 L 37.988281 33.570312 C 38.007812 33.988281 38.25 34.363281 38.628906 34.550781 C 42.878906 36.601562 45.65625 38.5625 47.023438 41.234375 C 48.625 44.335938 48.503906 47.875 48.597656 53.117188 C 48.609375 53.65625 48.40625 54.058594 48.179688 54.363281 C 47.96875 54.660156 47.492188 54.769531 47.058594 54.769531 C 46.628906 54.769531 46.21875 54.617188 45.953125 54.363281 C 45.535156 53.871094 45.53125 53.566406 45.519531 53.117188 C 45.4375 47.894531 45.429688 44.847656 44.292969 42.644531 C 43.316406 40.75 41.453125 39.363281 37.851562 37.472656 C 36.503906 36.769531 35.054688 36.371094 33.683594 36.851562 C 32.320312 37.335938 31.417969 38.800781 31.328125 40.710938 C 30.980469 47.695312 30.566406 53.074219 29.628906 60.171875 C 29.621094 60.1875 29.621094 60.199219 29.617188 60.210938 C 29.554688 60.84375 29.339844 61.128906 29.039062 61.335938 C 28.742188 61.542969 28.308594 61.636719 27.882812 61.585938 C 27.464844 61.53125 27.074219 61.320312 26.839844 61.046875 C 26.492188 60.523438 26.511719 60.25 26.574219 59.773438 C 28.765625 43.421875 29.027344 30.335938 27.628906 19.8125 C 27.503906 18.871094 28.203125 18.0625 29.152344 18.0625 C 34.191406 18.0625 40.105469 18.0625 43.800781 16.945312 C 47.28125 15.894531 50.6875 14.042969 52.875 9.335938 C 53.457031 8.085938 54.699219 9.25 54.289062 10.417969 Z M 66.992188 5.375 L 66.992188 7.875 L 55.90625 7.574219 C 55.632812 7.238281 55.296875 6.960938 54.917969 6.773438 C 53.84375 6.25 52.445312 6.5 51.5 7.433594 L 43.066406 7.160156 C 42.148438 7.132812 42.296875 5.96875 43.011719 5.949219 Z M 68.105469 2.316406 C 67.617188 2.332031 67.191406 2.648438 67.042969 3.109375 L 43.085938 3.675781 C 41.285156 3.722656 39.890625 5.164062 39.917969 6.597656 C 39.9375 7.859375 40.9375 9.046875 42.382812 9.347656 C 42.222656 9.652344 42.109375 9.988281 42.058594 10.359375 C 41.792969 12.398438 40.960938 14.21875 40.183594 15.347656 C 37.023438 15.738281 32.835938 15.800781 29.148438 15.800781 C 26.875 15.800781 25.234375 18.179688 25.382812 20.109375 C 26.472656 34.582031 26.136719 47.972656 24.324219 59.445312 C 24.183594 60.3125 24.332031 61.144531 24.671875 61.832031 C 22.589844 61.859375 21.058594 62.109375 19.675781 62.804688 C 18.207031 63.542969 16.996094 64.683594 15.257812 66.335938 L 1.148438 79.777344 C 0.269531 80.617188 0.132812 81.78125 0.394531 82.828125 C 0.523438 83.355469 0.773438 83.878906 1.21875 84.292969 C 1.652344 84.714844 2.308594 84.984375 2.996094 84.984375 L 85.601562 84.984375 C 86.832031 84.984375 87.707031 83.972656 87.945312 82.953125 C 88.179688 81.921875 87.914062 80.707031 87.015625 79.796875 L 60.832031 53.472656 C 59.28125 51.917969 57.320312 51.21875 55.3125 51.285156 C 53.851562 51.332031 52.359375 51.753906 50.867188 52.429688 C 50.871094 47.558594 50.871094 43.746094 49.042969 40.195312 C 47.40625 37.015625 44.285156 34.902344 40.242188 32.878906 L 39.929688 22.648438 C 41.730469 22.46875 43.480469 22.335938 45.355469 21.769531 C 50.007812 20.359375 54.207031 17.398438 56.429688 11.183594 C 56.589844 10.734375 56.65625 10.296875 56.664062 9.875 L 67.019531 10.148438 C 67.363281 11.488281 69.34375 11.171875 69.253906 9.796875 L 69.253906 3.464844 C 69.261719 2.832031 68.742188 2.308594 68.105469 2.316406 Z M 68.105469 2.316406 " fill-opacity="1" fill-rule="nonzero"/></g><path fill="#1c97cd" d="M 33.96875 3.464844 C 36.257812 4.335938 37.359375 6.8125 36.484375 9.050781 C 35.605469 11.289062 33.058594 12.402344 30.769531 11.535156 C 28.488281 10.664062 27.386719 8.183594 28.261719 5.953125 C 29.140625 3.710938 31.683594 2.597656 33.96875 3.464844 Z M 34.769531 1.347656 C 31.351562 0.046875 27.476562 1.734375 26.140625 5.125 L 26.15625 5.125 C 24.824219 8.507812 26.539062 12.355469 29.960938 13.652344 C 33.386719 14.949219 37.261719 13.269531 38.597656 9.875 C 39.921875 6.488281 38.199219 2.648438 34.769531 1.347656 Z M 34.769531 1.347656 " fill-opacity="1" fill-rule="evenodd"/><g clip-path="url(#9385df9483)"><path fill="#1c97cd" d="M 55.375 53.546875 C 56.859375 53.503906 58.078125 53.929688 59.21875 55.074219 L 85.398438 81.394531 C 85.746094 81.746094 85.800781 82.15625 85.734375 82.441406 C 85.671875 82.730469 85.621094 82.714844 85.597656 82.714844 L 2.996094 82.714844 C 2.847656 82.714844 2.835938 82.695312 2.773438 82.644531 C 2.714844 82.589844 2.636719 82.46875 2.589844 82.285156 C 2.5 81.929688 2.660156 81.46875 2.710938 81.417969 L 16.816406 67.980469 C 18.539062 66.339844 19.625 65.367188 20.691406 64.832031 C 21.761719 64.292969 22.925781 64.089844 25.074219 64.089844 L 30.726562 64.089844 C 34.136719 64.089844 36.175781 63.421875 38.949219 61.820312 L 47.253906 57.023438 C 48.136719 56.984375 49.023438 56.683594 49.714844 56.046875 C 49.957031 55.824219 50.152344 55.546875 50.332031 55.253906 C 52.171875 54.1875 53.90625 53.59375 55.375 53.546875 Z M 34.835938 38.921875 C 35.324219 38.914062 36.023438 39.074219 36.792969 39.480469 C 40.273438 41.300781 41.644531 42.449219 42.273438 43.683594 C 43.007812 45.097656 43.257812 47.929688 43.257812 53.054688 C 43.199219 54.273438 43.667969 55.359375 44.410156 56.046875 L 44.414062 56.046875 L 37.820312 59.855469 C 35.414062 61.242188 34.09375 61.730469 31.472656 61.804688 C 31.671875 61.394531 31.820312 60.945312 31.871094 60.449219 C 32.820312 53.304688 33.238281 47.832031 33.585938 40.824219 C 33.65625 39.445312 34 39.136719 34.433594 38.988281 C 34.539062 38.949219 34.675781 38.929688 34.835938 38.921875 Z M 45.472656 11.222656 C 45.449219 12.042969 45.28125 13.261719 45.125 14.074219 C 44.433594 14.371094 43.71875 14.585938 43.113281 14.785156 C 43.660156 13.59375 44.035156 12.183594 44.308594 10.65625 C 44.4375 9.910156 45.5 10.140625 45.472656 11.222656 Z M 47.484375 9.570312 L 50.160156 9.652344 C 49.40625 10.960938 48.558594 11.921875 47.617188 12.65625 C 47.660156 12.207031 47.710938 11.738281 47.734375 11.363281 C 47.78125 10.699219 47.6875 10.097656 47.484375 9.570312 Z M 54.289062 10.417969 C 52.300781 16.027344 48.90625 18.332031 44.6875 19.601562 C 42.738281 20.191406 40.886719 20.324219 38.644531 20.5625 C 38.058594 20.625 37.617188 21.132812 37.632812 21.722656 L 37.988281 33.570312 C 38.007812 33.988281 38.25 34.363281 38.628906 34.550781 C 42.878906 36.601562 45.65625 38.5625 47.023438 41.234375 C 48.625 44.335938 48.503906 47.875 48.597656 53.117188 C 48.609375 53.65625 48.40625 54.058594 48.179688 54.363281 C 47.96875 54.660156 47.492188 54.769531 47.058594 54.769531 C 46.628906 54.769531 46.21875 54.617188 45.953125 54.363281 C 45.535156 53.871094 45.53125 53.566406 45.519531 53.117188 C 45.4375 47.894531 45.429688 44.847656 44.292969 42.644531 C 43.316406 40.75 41.453125 39.363281 37.851562 37.472656 C 36.503906 36.769531 35.054688 36.371094 33.683594 36.851562 C 32.320312 37.335938 31.417969 38.800781 31.328125 40.710938 C 30.980469 47.695312 30.566406 53.074219 29.628906 60.171875 C 29.621094 60.1875 29.621094 60.199219 29.617188 60.210938 C 29.554688 60.84375 29.339844 61.128906 29.039062 61.335938 C 28.742188 61.542969 28.308594 61.636719 27.882812 61.585938 C 27.464844 61.53125 27.074219 61.320312 26.839844 61.046875 C 26.492188 60.523438 26.511719 60.25 26.574219 59.773438 C 28.765625 43.421875 29.027344 30.335938 27.628906 19.8125 C 27.503906 18.871094 28.203125 18.0625 29.152344 18.0625 C 34.191406 18.0625 40.105469 18.0625 43.800781 16.945312 C 47.28125 15.894531 50.6875 14.042969 52.875 9.335938 C 53.457031 8.085938 54.699219 9.25 54.289062 10.417969 Z M 66.992188 5.375 L 66.992188 7.875 L 55.90625 7.574219 C 55.632812 7.238281 55.296875 6.960938 54.917969 6.773438 C 53.84375 6.25 52.445312 6.5 51.5 7.433594 L 43.066406 7.160156 C 42.148438 7.132812 42.296875 5.96875 43.011719 5.949219 Z M 68.105469 2.316406 C 67.617188 2.332031 67.191406 2.648438 67.042969 3.109375 L 43.085938 3.675781 C 41.285156 3.722656 39.890625 5.164062 39.917969 6.597656 C 39.9375 7.859375 40.9375 9.046875 42.382812 9.347656 C 42.222656 9.652344 42.109375 9.988281 42.058594 10.359375 C 41.792969 12.398438 40.960938 14.21875 40.183594 15.347656 C 37.023438 15.738281 32.835938 15.800781 29.148438 15.800781 C 26.875 15.800781 25.234375 18.179688 25.382812 20.109375 C 26.472656 34.582031 26.136719 47.972656 24.324219 59.445312 C 24.183594 60.3125 24.332031 61.144531 24.671875 61.832031 C 22.589844 61.859375 21.058594 62.109375 19.675781 62.804688 C 18.207031 63.542969 16.996094 64.683594 15.257812 66.335938 L 1.148438 79.777344 C 0.269531 80.617188 0.132812 81.78125 0.394531 82.828125 C 0.523438 83.355469 0.773438 83.878906 1.21875 84.292969 C 1.652344 84.714844 2.308594 84.984375 2.996094 84.984375 L 85.601562 84.984375 C 86.832031 84.984375 87.707031 83.972656 87.945312 82.953125 C 88.179688 81.921875 87.914062 80.707031 87.015625 79.796875 L 60.832031 53.472656 C 59.28125 51.917969 57.320312 51.21875 55.3125 51.285156 C 53.851562 51.332031 52.359375 51.753906 50.867188 52.429688 C 50.871094 47.558594 50.871094 43.746094 49.042969 40.195312 C 47.40625 37.015625 44.285156 34.902344 40.242188 32.878906 L 39.929688 22.648438 C 41.730469 22.46875 43.480469 22.335938 45.355469 21.769531 C 50.007812 20.359375 54.207031 17.398438 56.429688 11.183594 C 56.589844 10.734375 56.65625 10.296875 56.664062 9.875 L 67.019531 10.148438 C 67.363281 11.488281 69.34375 11.171875 69.253906 9.796875 L 69.253906 3.464844 C 69.261719 2.832031 68.742188 2.308594 68.105469 2.316406 Z M 68.105469 2.316406 " fill-opacity="1" fill-rule="nonzero"/></g><path fill="#1c97cd" d="M 33.96875 3.464844 C 36.257812 4.335938 37.359375 6.8125 36.484375 9.050781 C 35.605469 11.289062 33.058594 12.402344 30.769531 11.535156 C 28.488281 10.664062 27.386719 8.183594 28.261719 5.953125 C 29.140625 3.710938 31.683594 2.597656 33.96875 3.464844 Z M 34.769531 1.347656 C 31.351562 0.046875 27.476562 1.734375 26.140625 5.125 L 26.15625 5.125 C 24.824219 8.507812 26.539062 12.355469 29.960938 13.652344 C 33.386719 14.949219 37.261719 13.269531 38.597656 9.875 C 39.921875 6.488281 38.199219 2.648438 34.769531 1.347656 Z M 34.769531 1.347656 " fill-opacity="1" fill-rule="evenodd"/><g clip-path="url(#1b8732f1ee)"><path fill="#1c97cd" d="M 55.375 53.546875 C 56.859375 53.503906 58.078125 53.929688 59.21875 55.074219 L 85.398438 81.394531 C 85.746094 81.746094 85.800781 82.15625 85.734375 82.441406 C 85.671875 82.730469 85.621094 82.714844 85.597656 82.714844 L 2.996094 82.714844 C 2.847656 82.714844 2.835938 82.695312 2.773438 82.644531 C 2.714844 82.589844 2.636719 82.46875 2.589844 82.285156 C 2.5 81.929688 2.660156 81.46875 2.710938 81.417969 L 16.816406 67.980469 C 18.539062 66.339844 19.625 65.367188 20.691406 64.832031 C 21.761719 64.292969 22.925781 64.089844 25.074219 64.089844 L 30.726562 64.089844 C 34.136719 64.089844 36.175781 63.421875 38.949219 61.820312 L 47.253906 57.023438 C 48.136719 56.984375 49.023438 56.683594 49.714844 56.046875 C 49.957031 55.824219 50.152344 55.546875 50.332031 55.253906 C 52.171875 54.1875 53.90625 53.59375 55.375 53.546875 Z M 34.835938 38.921875 C 35.324219 38.914062 36.023438 39.074219 36.792969 39.480469 C 40.273438 41.300781 41.644531 42.449219 42.273438 43.683594 C 43.007812 45.097656 43.257812 47.929688 43.257812 53.054688 C 43.199219 54.273438 43.667969 55.359375 44.410156 56.046875 L 44.414062 56.046875 L 37.820312 59.855469 C 35.414062 61.242188 34.09375 61.730469 31.472656 61.804688 C 31.671875 61.394531 31.820312 60.945312 31.871094 60.449219 C 32.820312 53.304688 33.238281 47.832031 33.585938 40.824219 C 33.65625 39.445312 34 39.136719 34.433594 38.988281 C 34.539062 38.949219 34.675781 38.929688 34.835938 38.921875 Z M 45.472656 11.222656 C 45.449219 12.042969 45.28125 13.261719 45.125 14.074219 C 44.433594 14.371094 43.71875 14.585938 43.113281 14.785156 C 43.660156 13.59375 44.035156 12.183594 44.308594 10.65625 C 44.4375 9.910156 45.5 10.140625 45.472656 11.222656 Z M 47.484375 9.570312 L 50.160156 9.652344 C 49.40625 10.960938 48.558594 11.921875 47.617188 12.65625 C 47.660156 12.207031 47.710938 11.738281 47.734375 11.363281 C 47.78125 10.699219 47.6875 10.097656 47.484375 9.570312 Z M 54.289062 10.417969 C 52.300781 16.027344 48.90625 18.332031 44.6875 19.601562 C 42.738281 20.191406 40.886719 20.324219 38.644531 20.5625 C 38.058594 20.625 37.617188 21.132812 37.632812 21.722656 L 37.988281 33.570312 C 38.007812 33.988281 38.25 34.363281 38.628906 34.550781 C 42.878906 36.601562 45.65625 38.5625 47.023438 41.234375 C 48.625 44.335938 48.503906 47.875 48.597656 53.117188 C 48.609375 53.65625 48.40625 54.058594 48.179688 54.363281 C 47.96875 54.660156 47.492188 54.769531 47.058594 54.769531 C 46.628906 54.769531 46.21875 54.617188 45.953125 54.363281 C 45.535156 53.871094 45.53125 53.566406 45.519531 53.117188 C 45.4375 47.894531 45.429688 44.847656 44.292969 42.644531 C 43.316406 40.75 41.453125 39.363281 37.851562 37.472656 C 36.503906 36.769531 35.054688 36.371094 33.683594 36.851562 C 32.320312 37.335938 31.417969 38.800781 31.328125 40.710938 C 30.980469 47.695312 30.566406 53.074219 29.628906 60.171875 C 29.621094 60.1875 29.621094 60.199219 29.617188 60.210938 C 29.554688 60.84375 29.339844 61.128906 29.039062 61.335938 C 28.742188 61.542969 28.308594 61.636719 27.882812 61.585938 C 27.464844 61.53125 27.074219 61.320312 26.839844 61.046875 C 26.492188 60.523438 26.511719 60.25 26.574219 59.773438 C 28.765625 43.421875 29.027344 30.335938 27.628906 19.8125 C 27.503906 18.871094 28.203125 18.0625 29.152344 18.0625 C 34.191406 18.0625 40.105469 18.0625 43.800781 16.945312 C 47.28125 15.894531 50.6875 14.042969 52.875 9.335938 C 53.457031 8.085938 54.699219 9.25 54.289062 10.417969 Z M 66.992188 5.375 L 66.992188 7.875 L 55.90625 7.574219 C 55.632812 7.238281 55.296875 6.960938 54.917969 6.773438 C 53.84375 6.25 52.445312 6.5 51.5 7.433594 L 43.066406 7.160156 C 42.148438 7.132812 42.296875 5.96875 43.011719 5.949219 Z M 68.105469 2.316406 C 67.617188 2.332031 67.191406 2.648438 67.042969 3.109375 L 43.085938 3.675781 C 41.285156 3.722656 39.890625 5.164062 39.917969 6.597656 C 39.9375 7.859375 40.9375 9.046875 42.382812 9.347656 C 42.222656 9.652344 42.109375 9.988281 42.058594 10.359375 C 41.792969 12.398438 40.960938 14.21875 40.183594 15.347656 C 37.023438 15.738281 32.835938 15.800781 29.148438 15.800781 C 26.875 15.800781 25.234375 18.179688 25.382812 20.109375 C 26.472656 34.582031 26.136719 47.972656 24.324219 59.445312 C 24.183594 60.3125 24.332031 61.144531 24.671875 61.832031 C 22.589844 61.859375 21.058594 62.109375 19.675781 62.804688 C 18.207031 63.542969 16.996094 64.683594 15.257812 66.335938 L 1.148438 79.777344 C 0.269531 80.617188 0.132812 81.78125 0.394531 82.828125 C 0.523438 83.355469 0.773438 83.878906 1.21875 84.292969 C 1.652344 84.714844 2.308594 84.984375 2.996094 84.984375 L 85.601562 84.984375 C 86.832031 84.984375 87.707031 83.972656 87.945312 82.953125 C 88.179688 81.921875 87.914062 80.707031 87.015625 79.796875 L 60.832031 53.472656 C 59.28125 51.917969 57.320312 51.21875 55.3125 51.285156 C 53.851562 51.332031 52.359375 51.753906 50.867188 52.429688 C 50.871094 47.558594 50.871094 43.746094 49.042969 40.195312 C 47.40625 37.015625 44.285156 34.902344 40.242188 32.878906 L 39.929688 22.648438 C 41.730469 22.46875 43.480469 22.335938 45.355469 21.769531 C 50.007812 20.359375 54.207031 17.398438 56.429688 11.183594 C 56.589844 10.734375 56.65625 10.296875 56.664062 9.875 L 67.019531 10.148438 C 67.363281 11.488281 69.34375 11.171875 69.253906 9.796875 L 69.253906 3.464844 C 69.261719 2.832031 68.742188 2.308594 68.105469 2.316406 Z M 68.105469 2.316406 " fill-opacity="1" fill-rule="nonzero"/></g><path fill="#1c97cd" d="M 33.96875 3.464844 C 36.257812 4.335938 37.359375 6.8125 36.484375 9.050781 C 35.605469 11.289062 33.058594 12.402344 30.769531 11.535156 C 28.488281 10.664062 27.386719 8.183594 28.261719 5.953125 C 29.140625 3.710938 31.683594 2.597656 33.96875 3.464844 Z M 34.769531 1.347656 C 31.351562 0.046875 27.476562 1.734375 26.140625 5.125 L 26.15625 5.125 C 24.824219 8.507812 26.539062 12.355469 29.960938 13.652344 C 33.386719 14.949219 37.261719 13.269531 38.597656 9.875 C 39.921875 6.488281 38.199219 2.648438 34.769531 1.347656 Z M 34.769531 1.347656 " fill-opacity="1" fill-rule="evenodd"/></svg>